<?xml version="1.0" encoding="utf-8"?>

<!-- Uploaded to: SVG Repo, www.svgrepo.com, Generator: SVG Repo Mixer Tools -->
<svg version="1.1" id="Icons" xmlns="http://www.w3.org/2000/svg" xmlns:xlink="http://www.w3.org/1999/xlink" 
	 viewBox="0 0 32 32" xml:space="preserve">
<style type="text/css">
	.st0{fill:none;stroke:#000000;stroke-width:2;stroke-linecap:round;stroke-linejoin:round;stroke-miterlimit:10;}
</style>
<polygon points="20,2.6 20,8 25.4,8 "/>
<path d="M23.5,10H19c-0.6,0-1-0.4-1-1V2H7C6.4,2,6,2.4,6,3v26c0,0.6,0.4,1,1,1h18c0.6,0,1-0.4,1-1V12.5C26,11.1,24.9,10,23.5,10z
	 M19,21c0,1.7-1.3,3-3,3h-5c-1.7,0-3-1.3-3-3v-5c0-1.7,1.3-3,3-3h5c1.7,0,3,1.3,3,3V21z M24,23c0,0.4-0.3,0.8-0.7,0.9
	C23.2,24,23.1,24,23,24c-0.3,0-0.6-0.1-0.8-0.4l-2-2.6c-0.1-0.2-0.2-0.4-0.2-0.6v-3.9c0-0.2,0.1-0.4,0.2-0.6l2-2.6
	c0.3-0.3,0.7-0.5,1.1-0.3c0.4,0.1,0.7,0.5,0.7,0.9V23z"/>
</svg>